<svg xmlns="http://www.w3.org/2000/svg" width="4" height="14" viewBox="0 0 4 14" fill="none">
  <path d="M0.952381 9.7305L0.419048 0H3.61905L3.04762 9.7305H0.952381ZM2.01905 14C1.46032 14 0.977778 13.9007 0.571429 13.7021C0.190476 13.4903 0 13.2454 0 12.9674C0 12.6761 0.190476 12.4378 0.571429 12.2525C0.977778 12.0539 1.46032 11.9546 2.01905 11.9546C2.60317 11.9546 3.07302 12.0539 3.42857 12.2525C3.80952 12.4378 4 12.6761 4 12.9674C4 13.2454 3.80952 13.4903 3.42857 13.7021C3.07302 13.9007 2.60317 14 2.01905 14Z" fill="#D98200"/>
</svg>
